PathFileType	4	(X/Y/Z)	E:/New_biomech_experiments/2 Elbow flexion/Shreyas_pp_27_6_24_t02.trc	
DataRate	CameraRate	NumFrames	NumMarkers	Units	OrigDataRate	OrigDataStartFrame	OrigNumFrames	
120.00	120.00	136	3	m	120.00	1476	5903	
Frame#	Time	r_humerus_epicondyle			r_acromion			r_radius_styloid			
		X1	Y1	Z1	X2	Y2	Z2	X3	Y3	Z3	

1476	12.292	-0.03396	0.48311	0.24448	-0.00781	0.82152	0.20484	0.21854	0.47887	0.26183 
1477	12.300	-0.03394	0.48312	0.24452	-0.00772	0.82152	0.20485	0.21855	0.47885	0.26183 
1478	12.308	-0.03392	0.48311	0.24456	-0.00764	0.82152	0.20486	0.21858	0.47882	0.26183 
1479	12.317	-0.03389	0.48311	0.24461	-0.00756	0.82151	0.20488	0.21862	0.47880	0.26183 
1480	12.325	-0.03384	0.48310	0.24467	-0.00748	0.82150	0.20491	0.21866	0.47878	0.26184 
1481	12.333	-0.03380	0.48309	0.24473	-0.00742	0.82149	0.20495	0.21872	0.47876	0.26184 
1482	12.342	-0.03374	0.48307	0.24480	-0.00736	0.82148	0.20499	0.21878	0.47875	0.26184 
1483	12.350	-0.03368	0.48306	0.24486	-0.00731	0.82147	0.20504	0.21884	0.47875	0.26185 
1484	12.358	-0.03362	0.48305	0.24493	-0.00726	0.82146	0.20510	0.21892	0.47876	0.26185 
1485	12.367	-0.03356	0.48304	0.24500	-0.00721	0.82145	0.20517	0.21899	0.47878	0.26186 
1486	12.375	-0.03350	0.48302	0.24507	-0.00717	0.82144	0.20524	0.21908	0.47881	0.26186 
1487	12.383	-0.03344	0.48301	0.24515	-0.00713	0.82143	0.20532	0.21917	0.47884	0.26186 
1488	12.392	-0.03337	0.48300	0.24523	-0.00709	0.82142	0.20540	0.21927	0.47889	0.26186 
1489	12.400	-0.03331	0.48299	0.24532	-0.00705	0.82140	0.20550	0.21938	0.47894	0.26185 
1490	12.408	-0.03325	0.48297	0.24541	-0.00701	0.82139	0.20560	0.21948	0.47899	0.26186 
1491	12.417	-0.03319	0.48295	0.24551	-0.00697	0.82138	0.20570	0.21957	0.47902	0.26189 
1492	12.425	-0.03312	0.48293	0.24561	-0.00692	0.82136	0.20581	0.21965	0.47905	0.26193 
1493	12.433	-0.03306	0.48291	0.24571	-0.00688	0.82134	0.20592	0.21973	0.47908	0.26199 
1494	12.442	-0.03300	0.48289	0.24583	-0.00684	0.82133	0.20603	0.21980	0.47910	0.26206 
1495	12.450	-0.03294	0.48288	0.24595	-0.00680	0.82131	0.20615	0.21987	0.47912	0.26213 
1496	12.458	-0.03288	0.48286	0.24607	-0.00676	0.82130	0.20627	0.21994	0.47915	0.26221 
1497	12.467	-0.03282	0.48285	0.24620	-0.00673	0.82128	0.20639	0.22001	0.47917	0.26230 
1498	12.475	-0.03276	0.48284	0.24633	-0.00670	0.82127	0.20650	0.22008	0.47920	0.26239 
1499	12.483	-0.03270	0.48282	0.24646	-0.00668	0.82125	0.20662	0.22014	0.47923	0.26249 
1500	12.492	-0.03264	0.48281	0.24659	-0.00667	0.82123	0.20674	0.22020	0.47925	0.26259 
1501	12.500	-0.03258	0.48279	0.24672	-0.00666	0.82121	0.20685	0.22026	0.47927	0.26269 
1502	12.508	-0.03253	0.48277	0.24685	-0.00667	0.82119	0.20696	0.22031	0.47929	0.26280 
1503	12.517	-0.03247	0.48275	0.24697	-0.00668	0.82117	0.20707	0.22036	0.47929	0.26291 
1504	12.525	-0.03243	0.48273	0.24709	-0.00670	0.82115	0.20718	0.22039	0.47928	0.26302 
1505	12.533	-0.03239	0.48270	0.24720	-0.00673	0.82112	0.20729	0.22042	0.47927	0.26313 
1506	12.542	-0.03236	0.48267	0.24730	-0.00677	0.82110	0.20739	0.22045	0.47925	0.26325 
1507	12.550	-0.03233	0.48264	0.24740	-0.00681	0.82108	0.20750	0.22046	0.47923	0.26337 
1508	12.558	-0.03232	0.48261	0.24749	-0.00686	0.82106	0.20761	0.22047	0.47921	0.26349 
1509	12.567	-0.03231	0.48258	0.24757	-0.00691	0.82104	0.20772	0.22048	0.47919	0.26362 
1510	12.575	-0.03231	0.48255	0.24764	-0.00696	0.82102	0.20783	0.22047	0.47918	0.26374 
1511	12.583	-0.03231	0.48252	0.24771	-0.00702	0.82100	0.20794	0.22046	0.47917	0.26386 
1512	12.592	-0.03233	0.48249	0.24778	-0.00708	0.82099	0.20804	0.22044	0.47917	0.26397 
1513	12.600	-0.03235	0.48247	0.24785	-0.00714	0.82097	0.20815	0.22042	0.47917	0.26408 
1514	12.608	-0.03237	0.48244	0.24792	-0.00719	0.82096	0.20825	0.22039	0.47918	0.26419 
1515	12.617	-0.03240	0.48242	0.24798	-0.00723	0.82095	0.20835	0.22035	0.47918	0.26428 
1516	12.625	-0.03244	0.48240	0.24805	-0.00727	0.82094	0.20845	0.22032	0.47919	0.26438 
1517	12.633	-0.03248	0.48238	0.24812	-0.00729	0.82092	0.20854	0.22028	0.47919	0.26447 
1518	12.642	-0.03251	0.48237	0.24820	-0.00731	0.82091	0.20863	0.22024	0.47919	0.26456 
1519	12.650	-0.03255	0.48236	0.24828	-0.00732	0.82090	0.20872	0.22020	0.47918	0.26465 
1520	12.658	-0.03259	0.48236	0.24836	-0.00731	0.82090	0.20881	0.22016	0.47916	0.26473 
1521	12.667	-0.03263	0.48235	0.24844	-0.00730	0.82089	0.20889	0.22012	0.47915	0.26480 
1522	12.675	-0.03266	0.48235	0.24853	-0.00727	0.82089	0.20897	0.22008	0.47912	0.26488 
1523	12.683	-0.03269	0.48235	0.24862	-0.00724	0.82088	0.20904	0.22005	0.47910	0.26495 
1524	12.692	-0.03272	0.48235	0.24871	-0.00720	0.82087	0.20912	0.22002	0.47907	0.26502 
1525	12.700	-0.03274	0.48235	0.24880	-0.00716	0.82086	0.20919	0.22000	0.47904	0.26508 
1526	12.708	-0.03276	0.48234	0.24888	-0.00712	0.82084	0.20926	0.21998	0.47900	0.26514 
1527	12.717	-0.03278	0.48233	0.24897	-0.00709	0.82082	0.20933	0.21996	0.47896	0.26520 
1528	12.725	-0.03278	0.48231	0.24904	-0.00707	0.82079	0.20940	0.21995	0.47892	0.26525 
1529	12.733	-0.03278	0.48228	0.24912	-0.00705	0.82076	0.20946	0.21995	0.47886	0.26530 
1530	12.742	-0.03277	0.48225	0.24918	-0.00705	0.82072	0.20953	0.21996	0.47881	0.26535 
1531	12.750	-0.03276	0.48221	0.24924	-0.00707	0.82067	0.20958	0.21997	0.47874	0.26539 
1532	12.758	-0.03274	0.48216	0.24929	-0.00709	0.82062	0.20964	0.21999	0.47867	0.26544 
1533	12.767	-0.03271	0.48210	0.24933	-0.00714	0.82057	0.20969	0.22000	0.47860	0.26548 
1534	12.775	-0.03269	0.48204	0.24936	-0.00719	0.82051	0.20973	0.22002	0.47851	0.26552 
1535	12.783	-0.03267	0.48198	0.24938	-0.00725	0.82046	0.20977	0.22004	0.47843	0.26555 
1536	12.792	-0.03265	0.48192	0.24938	-0.00732	0.82041	0.20981	0.22006	0.47835	0.26558 
1537	12.800	-0.03263	0.48187	0.24938	-0.00739	0.82036	0.20984	0.22007	0.47826	0.26561 
1538	12.808	-0.03262	0.48182	0.24936	-0.00746	0.82032	0.20987	0.22008	0.47819	0.26564 
1539	12.817	-0.03261	0.48177	0.24934	-0.00752	0.82028	0.20989	0.22008	0.47812	0.26566 
1540	12.825	-0.03261	0.48174	0.24930	-0.00758	0.82025	0.20991	0.22008	0.47805	0.26567 
1541	12.833	-0.03261	0.48171	0.24927	-0.00762	0.82023	0.20992	0.22007	0.47800	0.26568 
1542	12.842	-0.03262	0.48168	0.24923	-0.00766	0.82021	0.20993	0.22006	0.47796	0.26569 
1543	12.850	-0.03264	0.48167	0.24918	-0.00769	0.82020	0.20994	0.22004	0.47792	0.26569 
1544	12.858	-0.03265	0.48166	0.24914	-0.00772	0.82020	0.20994	0.22001	0.47790	0.26569 
1545	12.867	-0.03267	0.48166	0.24910	-0.00774	0.82020	0.20994	0.21998	0.47787	0.26568 
1546	12.875	-0.03269	0.48167	0.24906	-0.00775	0.82021	0.20993	0.21995	0.47785	0.26567 
1547	12.883	-0.03272	0.48168	0.24904	-0.00776	0.82023	0.20993	0.21993	0.47784	0.26565 
1548	12.892	-0.03274	0.48170	0.24902	-0.00777	0.82025	0.20992	0.21990	0.47782	0.26563 
1549	12.900	-0.03276	0.48172	0.24902	-0.00778	0.82027	0.20991	0.21988	0.47781	0.26561 
1550	12.908	-0.03277	0.48175	0.24903	-0.00779	0.82030	0.20989	0.21986	0.47781	0.26559 
1551	12.917	-0.03278	0.48178	0.24905	-0.00780	0.82033	0.20988	0.21985	0.47780	0.26556 
1552	12.925	-0.03279	0.48181	0.24909	-0.00781	0.82037	0.20987	0.21985	0.47780	0.26553 
1553	12.933	-0.03280	0.48184	0.24914	-0.00782	0.82040	0.20986	0.21985	0.47781	0.26551 
1554	12.942	-0.03280	0.48188	0.24919	-0.00783	0.82043	0.20985	0.21986	0.47782	0.26548 
1555	12.950	-0.03279	0.48191	0.24925	-0.00783	0.82047	0.20985	0.21988	0.47784	0.26546 
1556	12.958	-0.03277	0.48195	0.24931	-0.00784	0.82049	0.20984	0.21990	0.47787	0.26544 
1557	12.967	-0.03275	0.48197	0.24937	-0.00785	0.82052	0.20984	0.21993	0.47789	0.26542 
1558	12.975	-0.03273	0.48199	0.24944	-0.00786	0.82053	0.20984	0.21997	0.47792	0.26541 
1559	12.983	-0.03269	0.48200	0.24950	-0.00787	0.82054	0.20985	0.22001	0.47794	0.26542 
1560	12.992	-0.03266	0.48201	0.24956	-0.00789	0.82055	0.20986	0.22005	0.47796	0.26543 
1561	13.000	-0.03261	0.48200	0.24961	-0.00791	0.82054	0.20988	0.22009	0.47797	0.26545 
1562	13.008	-0.03257	0.48199	0.24966	-0.00793	0.82053	0.20989	0.22014	0.47796	0.26548 
1563	13.017	-0.03252	0.48197	0.24969	-0.00796	0.82051	0.20991	0.22018	0.47794	0.26551 
1564	13.025	-0.03248	0.48194	0.24972	-0.00800	0.82048	0.20993	0.22023	0.47792	0.26556 
1565	13.033	-0.03243	0.48191	0.24974	-0.00804	0.82045	0.20995	0.22027	0.47789	0.26561 
1566	13.042	-0.03240	0.48186	0.24976	-0.00808	0.82041	0.20998	0.22031	0.47785	0.26567 
1567	13.050	-0.03236	0.48181	0.24977	-0.00812	0.82037	0.21000	0.22034	0.47781	0.26574 
1568	13.058	-0.03233	0.48175	0.24977	-0.00816	0.82032	0.21003	0.22037	0.47777	0.26581 
1569	13.067	-0.03231	0.48169	0.24977	-0.00821	0.82027	0.21006	0.22039	0.47773	0.26588 
1570	13.075	-0.03230	0.48163	0.24977	-0.00826	0.82021	0.21008	0.22040	0.47768	0.26596 
1571	13.083	-0.03229	0.48157	0.24977	-0.00830	0.82016	0.21011	0.22041	0.47764	0.26603 
1572	13.092	-0.03228	0.48151	0.24977	-0.00835	0.82011	0.21014	0.22042	0.47759	0.26611 
1573	13.100	-0.03228	0.48145	0.24977	-0.00840	0.82005	0.21016	0.22042	0.47753	0.26619 
1574	13.108	-0.03228	0.48139	0.24977	-0.00845	0.82000	0.21019	0.22041	0.47747	0.26627 
1575	13.117	-0.03229	0.48134	0.24978	-0.00850	0.81995	0.21022	0.22040	0.47740	0.26635 
1576	13.125	-0.03230	0.48129	0.24978	-0.00855	0.81991	0.21025	0.22039	0.47733	0.26643 
1577	13.133	-0.03232	0.48125	0.24979	-0.00860	0.81987	0.21028	0.22037	0.47724	0.26651 
1578	13.142	-0.03234	0.48122	0.24979	-0.00865	0.81984	0.21030	0.22034	0.47715	0.26658 
1579	13.150	-0.03236	0.48119	0.24980	-0.00870	0.81982	0.21033	0.22032	0.47704	0.26666 
1580	13.158	-0.03238	0.48116	0.24980	-0.00875	0.81980	0.21035	0.22029	0.47692	0.26673 
1581	13.167	-0.03241	0.48115	0.24981	-0.00879	0.81979	0.21037	0.22026	0.47679	0.26681 
1582	13.175	-0.03243	0.48114	0.24982	-0.00883	0.81979	0.21039	0.22023	0.47665	0.26689 
1583	13.183	-0.03245	0.48113	0.24982	-0.00887	0.81979	0.21040	0.22020	0.47649	0.26698 
1584	13.192	-0.03247	0.48114	0.24983	-0.00890	0.81980	0.21042	0.22017	0.47633	0.26707 
1585	13.200	-0.03250	0.48114	0.24984	-0.00894	0.81981	0.21043	0.22013	0.47615	0.26716 
1586	13.208	-0.03252	0.48115	0.24984	-0.00897	0.81983	0.21045	0.22009	0.47597	0.26726 
1587	13.217	-0.03254	0.48116	0.24986	-0.00899	0.81985	0.21046	0.22005	0.47577	0.26735 
1588	13.225	-0.03256	0.48117	0.24987	-0.00902	0.81987	0.21047	0.22000	0.47557	0.26746 
1589	13.233	-0.03257	0.48118	0.24989	-0.00904	0.81989	0.21049	0.21995	0.47535	0.26758 
1590	13.242	-0.03259	0.48119	0.24991	-0.00906	0.81991	0.21050	0.21989	0.47513	0.26770 
1591	13.250	-0.03260	0.48120	0.24994	-0.00908	0.81993	0.21051	0.21983	0.47490	0.26784 
1592	13.258	-0.03261	0.48121	0.24997	-0.00909	0.81995	0.21053	0.21977	0.47467	0.26797 
1593	13.267	-0.03261	0.48122	0.25000	-0.00910	0.81997	0.21054	0.21974	0.47445	0.26808 
1594	13.275	-0.03261	0.48123	0.25004	-0.00911	0.81999	0.21055	0.21972	0.47424	0.26819 
1595	13.283	-0.03261	0.48124	0.25007	-0.00912	0.82000	0.21057	0.21971	0.47404	0.26829 
1596	13.292	-0.03260	0.48124	0.25010	-0.00913	0.82002	0.21059	0.21971	0.47385	0.26839 
1597	13.300	-0.03258	0.48125	0.25014	-0.00913	0.82003	0.21060	0.21972	0.47366	0.26848 
1598	13.308	-0.03256	0.48125	0.25017	-0.00914	0.82004	0.21062	0.21974	0.47347	0.26858 
1599	13.317	-0.03253	0.48125	0.25021	-0.00914	0.82005	0.21064	0.21977	0.47328	0.26867 
1600	13.325	-0.03249	0.48125	0.25024	-0.00915	0.82006	0.21065	0.21980	0.47309	0.26877 
1601	13.333	-0.03245	0.48123	0.25028	-0.00915	0.82005	0.21067	0.21985	0.47289	0.26887 
1602	13.342	-0.03240	0.48121	0.25032	-0.00916	0.82005	0.21069	0.21990	0.47268	0.26896 
1603	13.350	-0.03234	0.48117	0.25036	-0.00916	0.82003	0.21071	0.21995	0.47246	0.26906 
1604	13.358	-0.03228	0.48113	0.25040	-0.00916	0.82001	0.21074	0.22001	0.47224	0.26916 
1605	13.367	-0.03222	0.48108	0.25043	-0.00916	0.81998	0.21076	0.22008	0.47200	0.26927 
1606	13.375	-0.03216	0.48103	0.25046	-0.00916	0.81995	0.21079	0.22014	0.47175	0.26937 
1607	13.383	-0.03209	0.48097	0.25048	-0.00916	0.81991	0.21082	0.22020	0.47150	0.26948 
1608	13.392	-0.03202	0.48091	0.25050	-0.00915	0.81987	0.21084	0.22027	0.47124	0.26958 
1609	13.400	-0.03195	0.48085	0.25051	-0.00914	0.81982	0.21087	0.22034	0.47098	0.26968 
1610	13.408	-0.03188	0.48079	0.25052	-0.00913	0.81977	0.21090	0.22041	0.47071	0.26978 
1611	13.417	-0.03181	0.48072	0.25053	-0.00911	0.81973	0.21092	0.22048	0.47044	0.26988 
